HIERARCHY
ROOT root
{
	OFFSET 0.000000 0.000000 0.000000
	CHANNELS 6 Xposition Yposition Zposition Zrotation Yrotation Xrotation
	JOINT lhip
	{
		OFFSET 0.058581 -0.082280 -0.017664
		CHANNELS 3 Zrotation Yrotation Xrotation
		JOINT lknee
		{
			OFFSET 0.043451 -0.386469 0.008037
			CHANNELS 3 Zrotation Yrotation Xrotation
			JOINT lankle
			{
				OFFSET -0.014790 -0.426874 -0.037428
				CHANNELS 3 Zrotation Yrotation Xrotation
				JOINT ltoe
				{
					OFFSET 0.041054 -0.060286 0.122042
					CHANNELS 3 Zrotation Yrotation Xrotation
					End Site
					{
						OFFSET 0.000000 0.000000 0.000000
					}
				}
			}
		}
	}
	JOINT rhip
	{
		OFFSET -0.060310 -0.090513 -0.013543
		CHANNELS 3 Zrotation Yrotation Xrotation
		JOINT rknee
		{
			OFFSET -0.043257 -0.383688 -0.004843
			CHANNELS 3 Zrotation Yrotation Xrotation
			JOINT rankle
			{
				OFFSET 0.019056 -0.420046 -0.034562
				CHANNELS 3 Zrotation Yrotation Xrotation
				JOINT rtoe
				{
					OFFSET -0.034840 -0.062106 0.130323
					CHANNELS 3 Zrotation Yrotation Xrotation
					End Site
					{
						OFFSET 0.000000 0.000000 0.000000
					}
				}
			}
		}
	}
	JOINT lowerback
	{
		OFFSET 0.004439 0.124404 -0.038385
		CHANNELS 3 Zrotation Yrotation Xrotation
		JOINT upperback
		{
			OFFSET 0.004488 0.137956 0.026820
			CHANNELS 3 Zrotation Yrotation Xrotation
			JOINT chest
			{
				OFFSET -0.002265 0.056032 0.002855
				CHANNELS 3 Zrotation Yrotation Xrotation
				JOINT lowerneck
				{
					OFFSET -0.013390 0.211636 -0.033468
					CHANNELS 3 Zrotation Yrotation Xrotation
					JOINT upperneck
					{
						OFFSET 0.010113 0.088937 0.050410
						CHANNELS 3 Zrotation Yrotation Xrotation
						End Site
						{
							OFFSET 0.000000 0.000000 0.000000
						}
					}
				}
				JOINT lclavicle
				{
					OFFSET 0.071702 0.114000 -0.018898
					CHANNELS 3 Zrotation Yrotation Xrotation
					JOINT lshoulder
					{
						OFFSET 0.122921 0.045205 -0.019046
						CHANNELS 3 Zrotation Yrotation Xrotation
						JOINT lelbow
						{
							OFFSET 0.255332 -0.015649 -0.022946
							CHANNELS 3 Zrotation Yrotation Xrotation
							JOINT lwrist
							{
								OFFSET 0.265709 0.012698 -0.007375
								CHANNELS 3 Zrotation Yrotation Xrotation
								End Site
								{
									OFFSET 0.000000 0.000000 0.000000
								}
							}
						}
					}
				}
				JOINT rclavicle
				{
					OFFSET -0.082954 0.112472 -0.023707
					CHANNELS 3 Zrotation Yrotation Xrotation
					JOINT rshoulder
					{
						OFFSET -0.113228 0.046853 -0.008472
						CHANNELS 3 Zrotation Yrotation Xrotation
						JOINT relbow
						{
							OFFSET -0.260127 -0.014369 -0.031269
							CHANNELS 3 Zrotation Yrotation Xrotation
							JOINT rwrist
							{
								OFFSET -0.269108 0.006794 -0.006027
								CHANNELS 3 Zrotation Yrotation Xrotation
								End Site
								{
									OFFSET 0.000000 0.000000 0.000000
								}
							}
						}
					}
				}
			}
		}
	}
}
MOTION
Frames: 5
Frame Time: 0.033333
-0.204938 0.345299 0.831330 62.722737 3.136586 98.254175 27.658505 18.704083 -22.879455 -10.721943 -0.335341 58.327904 -7.376142 4.191020 -38.147367 0.000000 -0.000000 0.000000 -24.021576 -23.444588 -55.501043 0.307920 -20.742488 45.191949 10.099579 -2.604451 -14.124140 0.000000 -0.000000 0.000000 0.404914 -3.931258 51.369017 7.152160 -4.270478 -3.261668 6.503961 -5.043608 -0.925812 6.856238 -3.928349 -21.881122 13.184272 -10.889740 -17.392892 -28.626714 -6.017801 7.944834 -32.116501 -1.378093 -11.727010 33.598537 -44.962353 -45.252750 37.386825 -1.958786 -25.651030 27.703853 6.491469 -0.022466 38.583119 6.202409 -5.124574 -82.183183 53.523552 -85.461988 -31.857858 10.029875 -16.685452 
-0.152380 0.239453 0.831946 62.351837 1.268044 97.973276 32.108137 15.360387 -12.278494 -10.648391 -3.321551 51.869683 -13.570446 2.259916 -28.162574 0.000000 -0.000000 0.000000 -25.992108 -23.058097 -52.879277 1.159530 -25.317238 42.163794 9.017699 -2.735649 -13.907753 0.000000 -0.000000 0.000000 1.553268 -7.711320 45.233709 6.203181 -4.201936 -1.283448 4.705161 -5.897227 -1.382506 4.328804 -3.717151 -18.971281 9.305153 -10.170449 -15.546454 -30.831454 -3.588057 8.804963 -35.577685 -0.799236 -9.931679 32.880100 -42.165304 -42.944038 33.915772 -2.963776 -25.854691 29.279168 5.881196 0.730685 38.269601 7.552263 -4.312401 -68.250939 54.659512 -72.882816 -32.176984 10.609229 -14.763135 
-0.100747 0.125637 0.833403 61.009159 -2.309557 96.486737 31.746973 10.098232 -5.639651 -8.473927 -7.486981 49.909479 -11.849841 6.183465 -9.805707 0.000000 -0.000000 0.000000 -24.571457 -24.415328 -53.092666 0.974077 -19.736950 52.045165 4.673340 -2.386050 -3.138921 0.000000 -0.000000 0.000000 0.407339 -8.195432 39.376077 4.300337 -4.056390 0.239227 3.489380 -7.016295 -0.312797 1.977379 -6.138190 -17.402728 7.134973 -7.959720 -12.209961 -32.734000 0.055162 8.313303 -39.577829 -0.038195 -8.725025 35.731077 -41.819887 -45.172235 33.251858 -0.491746 -27.836315 30.153328 6.421404 0.867480 39.407387 10.299612 -3.242478 -54.750150 50.281050 -64.817648 -31.980152 9.127614 -14.219900 
-0.055227 0.019496 0.841556 59.631649 -3.223594 95.356897 29.942235 5.588496 -5.464320 -7.566000 -7.172245 53.615043 -6.753279 13.241004 -13.079687 0.000000 -0.000000 0.000000 -26.339831 -20.892890 -50.720507 -0.147055 -22.671801 65.293354 2.906292 -3.644762 -15.526372 0.000000 -0.000000 0.000000 1.351381 -8.364273 36.775535 2.913636 -1.614603 0.533812 1.505847 -6.129263 -0.273685 1.295597 -8.629258 -16.088336 4.824210 -10.046229 -11.277400 -33.949444 1.776306 8.451150 -43.069007 0.720834 -6.926774 39.392367 -42.671373 -47.318673 32.927524 1.030907 -28.930564 29.402046 7.351979 0.315094 39.988857 11.120387 -3.257503 -48.133190 45.533203 -62.289608 -33.997677 7.090201 -16.687752 
-0.014344 -0.086037 0.854694 59.499992 -3.613713 93.636925 28.212191 7.303400 -11.886102 -6.634752 -1.001063 65.133490 -4.013000 13.686237 -17.446961 0.000000 -0.000000 0.000000 -22.759741 -19.549443 -45.033514 -0.601201 -20.953380 71.660084 -0.254255 -5.779765 -25.607440 0.000000 -0.000000 0.000000 0.950222 -5.536104 36.395197 2.401079 -0.924195 0.039565 0.821982 -4.882100 0.186504 3.092866 -10.868589 -15.106693 5.330059 -12.691053 -9.172910 -33.739236 2.517392 8.308346 -43.617293 2.820739 -5.998715 38.558823 -46.126381 -43.590320 31.437429 1.558529 -30.456713 28.623319 7.394447 -0.342253 40.916687 11.134279 -4.608043 -43.637353 43.684830 -58.019812 -34.653880 6.063628 -17.537733 
